<svg width="24" height="24" viewBox="0 0 24 24" fill="none" xmlns="http://www.w3.org/2000/svg">
<path fill-rule="evenodd" clip-rule="evenodd" d="M3.29089 3.30861C3.15233 3.25036 2.99947 3.23509 2.85213 3.26477C2.70478 3.29446 2.56976 3.36772 2.46456 3.47508C2.35937 3.58243 2.28885 3.71891 2.26216 3.86682C2.23547 4.01474 2.25384 4.16726 2.31489 4.30461L5.40789 11.2496H12.9999C13.1988 11.2496 13.3896 11.3286 13.5302 11.4693C13.6709 11.6099 13.7499 11.8007 13.7499 11.9996C13.7499 12.1985 13.6709 12.3893 13.5302 12.5299C13.3896 12.6706 13.1988 12.7496 12.9999 12.7496H5.40789L2.31489 19.6946C2.25384 19.832 2.23547 19.9845 2.26216 20.1324C2.28885 20.2803 2.35937 20.4168 2.46456 20.5241C2.56976 20.6315 2.70478 20.7048 2.85213 20.7344C2.99947 20.7641 3.15233 20.7488 3.29089 20.6906L22.2909 12.6906C22.4268 12.6333 22.5427 12.5371 22.6243 12.4142C22.7058 12.2913 22.7493 12.1471 22.7493 11.9996C22.7493 11.8521 22.7058 11.7079 22.6243 11.585C22.5427 11.4621 22.4268 11.3659 22.2909 11.3086L3.29089 3.30861Z" fill="#124984"/>
</svg>
